<?xml version="1.0" encoding="utf-8"?>
<!-- Generator: Adobe Illustrator 21.0.2, SVG Export Plug-In . SVG Version: 6.00 Build 0)  -->
<svg version="1.1" id="Layer_1" xmlns="http://www.w3.org/2000/svg" xmlns:xlink="http://www.w3.org/1999/xlink" x="0px" y="0px"
	 viewBox="0 0 479.6 109.6" style="enable-background:new 0 0 479.6 109.6;" xml:space="preserve">
<style type="text/css">
	.st0{fill:#1DC1F8;}
	.st1{fill:#FFB600;}
</style>
<g>
	<path class="st0" d="M258.1,71.3h33.8v10.1H245v-7.9l32.5-57.9h-32.2V5.4h45.4V13L258.1,71.3z"/>
	<path class="st0" d="M331.4,81.5c-0.4-1.4-0.7-2.8-1-4.2c-0.3-1.4-0.4-2.7-0.5-4.1c-1.5,2.6-3.5,4.9-6,6.7
		c-2.5,1.8-5.3,2.7-8.4,2.7c-5.2,0-9.1-1.5-11.9-4.5c-2.8-3-4.1-7.2-4.1-12.5c0-5.5,1.9-9.7,5.7-12.8c3.8-3,9.1-4.6,16-4.6h8.6v-5
		c0-3-0.8-5.3-2.3-6.9c-1.5-1.7-3.7-2.5-6.6-2.5c-2.5,0-4.5,0.7-6,2.1c-1.5,1.4-2.2,3.2-2.2,5.4L302,41.2v-0.3
		c-0.2-4.5,1.5-8.4,5.2-11.9c3.7-3.4,8.5-5.2,14.5-5.2c5.8,0,10.4,1.7,14,5c3.5,3.3,5.3,8.1,5.3,14.4v25.1c0,2.3,0.1,4.6,0.4,6.7
		c0.3,2.1,0.7,4.2,1.3,6.3h-11.3V81.5z M317.8,72.4c2.8,0,5.3-0.8,7.5-2.4c2.2-1.6,3.7-3.4,4.5-5.5v-8.4H321c-3.2,0-5.8,0.9-7.6,2.7
		c-1.8,1.8-2.7,4-2.7,6.4c0,2.2,0.6,3.9,1.9,5.1C313.7,71.7,315.5,72.4,317.8,72.4z"/>
	<path class="st0" d="M362.6,25l0.6,8.1c1.6-2.9,3.7-5.1,6.1-6.8c2.5-1.6,5.2-2.4,8.3-2.4c5.2,0,9.2,1.8,12.1,5.4
		c2.9,3.6,4.3,9.3,4.3,17v35.1h-11.1v-35c0-4.4-0.7-7.5-2.2-9.3s-3.8-2.8-6.8-2.8c-2.4,0-4.4,0.5-6.2,1.5c-1.7,1-3.1,2.4-4.2,4.3
		v41.4h-11.1V25H362.6z"/>
	<path class="st0" d="M419.8,11.2V25h8.9v9.4h-8.9v31.2c0,2.3,0.4,4,1.3,5s2.1,1.5,3.5,1.5c0.6,0,1.2-0.1,1.8-0.2
		c0.6-0.1,1.1-0.3,1.6-0.5l1.2,9.3c-0.9,0.6-2.1,1.1-3.4,1.4c-1.3,0.3-2.6,0.5-4,0.5c-4.1,0-7.3-1.4-9.6-4.1s-3.5-7-3.5-12.9V34.4
		h-7.5V25h7.5V11.2H419.8z"/>
	<path class="st0" d="M458.6,82.5c-7.2,0-12.9-2.6-16.9-7.8c-4.1-5.2-6.1-11.9-6.1-20.2v-2.1c0-8.3,2-15.1,6.1-20.5s9.3-8,15.8-8
		c6.6,0,11.7,2.3,15.1,7c3.4,4.7,5.1,10.9,5.1,18.8v6.8H447l-0.1,0.3c0.1,4.6,1.2,8.4,3.2,11.3s5,4.3,9.1,4.3c3,0,5.6-0.4,7.8-1.3
		c2.2-0.8,4.3-2,6.2-3.6l3.6,8.3c-1.9,1.9-4.4,3.5-7.5,4.8C466.3,81.9,462.7,82.5,458.6,82.5z M457.4,34.1c-2.9,0-5.2,1.2-7,3.6
		s-2.8,5.5-3.2,9.3l0.1,0.3h19.3v-1c0-3.6-0.7-6.6-2.2-8.8C463,35.2,460.6,34.1,457.4,34.1z"/>
</g>
<g>
	<path class="st0" d="M54.1,81.5H43V49H13.2v32.4H2.1v-76h11.1v33.4H43V5.4h11.1V81.5z"/>
	<path class="st0" d="M64.9,52.7c0-8.4,2-15.3,6.1-20.7c4-5.4,9.6-8.1,16.6-8.1c7.1,0,12.7,2.7,16.7,8.1s6.1,12.3,6.1,20.7v1.1
		c0,8.5-2,15.4-6.1,20.8c-4,5.3-9.6,8-16.6,8c-7.1,0-12.6-2.7-16.7-8c-4-5.4-6.1-12.3-6.1-20.7V52.7z M76.1,53.8
		c0,5.5,0.9,10,2.8,13.5c1.9,3.4,4.8,5.2,8.8,5.2c3.9,0,6.8-1.7,8.7-5.2c1.9-3.5,2.9-7.9,2.9-13.4v-1.1c0-5.4-1-9.8-2.9-13.3
		s-4.9-5.2-8.8-5.2s-6.8,1.7-8.7,5.2C77,43,76,47.4,76,52.8v1H76.1z"/>
	<path class="st0" d="M134.3,11.2V25h8.9v9.4h-8.9v31.2c0,2.3,0.4,4,1.3,5s2.1,1.5,3.5,1.5c0.6,0,1.2-0.1,1.8-0.2
		c0.6-0.1,1.1-0.3,1.6-0.5l1.2,9.3c-0.9,0.6-2.1,1.1-3.4,1.4s-2.6,0.5-4,0.5c-4.1,0-7.3-1.4-9.6-4.1c-2.3-2.7-3.5-7-3.5-12.9V34.4
		h-7.5V25h7.5V11.2H134.3z"/>
	<path class="st0" d="M173.1,82.5c-7.2,0-12.9-2.6-16.9-7.8c-4.1-5.2-6.1-11.9-6.1-20.2v-2.1c0-8.3,2-15.1,6.1-20.5s9.3-8,15.8-8
		c6.6,0,11.7,2.3,15.1,7s5.1,10.9,5.1,18.8v6.8h-30.6l-0.1,0.3c0.1,4.6,1.2,8.4,3.2,11.3s5,4.3,9.1,4.3c3,0,5.6-0.4,7.8-1.3
		c2.2-0.8,4.3-2,6.2-3.6l3.6,8.3c-1.9,1.9-4.4,3.5-7.5,4.8C180.8,81.9,177.2,82.5,173.1,82.5z M171.9,34.1c-2.9,0-5.2,1.2-7,3.6
		s-2.8,5.5-3.2,9.3l0.1,0.3h19.3v-1c0-3.6-0.7-6.6-2.2-8.8S175.1,34.1,171.9,34.1z"/>
	<path class="st0" d="M213,81.5h-11.1V0H213V81.5z"/>
</g>
<g>
	<path class="st1" d="M391.1,99.4c0,0.2-0.1,0.3-0.3,0.5l-3.8,3.7l0.9,5.2c0,0,0,0.1,0,0.2s0,0.3-0.1,0.4s-0.2,0.2-0.3,0.2
		c-0.1,0-0.3,0-0.4-0.1l-4.7-2.5l-4.7,2.5c-0.2,0.1-0.3,0.1-0.4,0.1s-0.3-0.1-0.3-0.2c-0.1-0.1-0.1-0.2-0.1-0.4c0,0,0-0.1,0-0.2
		l0.9-5.2l-3.8-3.7c-0.2-0.2-0.3-0.4-0.3-0.5c0-0.3,0.2-0.4,0.6-0.5l5.3-0.8l2.4-4.8c0.1-0.3,0.3-0.4,0.5-0.4s0.4,0.1,0.5,0.4
		l2.4,4.8l5.3,0.8C390.9,99,391.1,99.1,391.1,99.4z"/>
	<path class="st1" d="M413.2,99.4c0,0.2-0.1,0.3-0.3,0.5l-3.8,3.7l0.9,5.2c0,0,0,0.1,0,0.2s0,0.3-0.1,0.4s-0.2,0.2-0.3,0.2
		c-0.1,0-0.3,0-0.4-0.1l-4.7-2.5l-4.7,2.5c-0.2,0.1-0.3,0.1-0.4,0.1s-0.3-0.1-0.3-0.2c-0.1-0.1-0.1-0.2-0.1-0.4c0,0,0-0.1,0-0.2
		l0.9-5.2l-3.8-3.7c-0.2-0.2-0.3-0.4-0.3-0.5c0-0.3,0.2-0.4,0.6-0.5l5.3-0.8l2.4-4.8c0.1-0.3,0.3-0.4,0.5-0.4s0.4,0.1,0.5,0.4
		l2.4,4.8l5.3,0.8C413,99,413.2,99.1,413.2,99.4z"/>
	<path class="st1" d="M435.4,99.4c0,0.2-0.1,0.3-0.3,0.5l-3.8,3.7l0.9,5.2c0,0,0,0.1,0,0.2s0,0.3-0.1,0.4s-0.2,0.2-0.3,0.2
		c-0.1,0-0.3,0-0.4-0.1l-4.7-2.5l-4.7,2.5c-0.2,0.1-0.3,0.1-0.4,0.1s-0.3-0.1-0.3-0.2c-0.1-0.1-0.1-0.2-0.1-0.4c0,0,0-0.1,0-0.2
		l0.9-5.2l-3.8-3.7c-0.2-0.2-0.3-0.4-0.3-0.5c0-0.3,0.2-0.4,0.6-0.5l5.3-0.8l2.4-4.8c0.1-0.3,0.3-0.4,0.5-0.4s0.4,0.1,0.5,0.4
		l2.4,4.8l5.3,0.8C435.2,99,435.4,99.1,435.4,99.4z"/>
	<path class="st1" d="M457.5,99.4c0,0.2-0.1,0.3-0.3,0.5l-3.8,3.7l0.9,5.2c0,0,0,0.1,0,0.2s0,0.3-0.1,0.4s-0.2,0.2-0.3,0.2
		c-0.1,0-0.3,0-0.4-0.1l-4.7-2.5l-4.7,2.5c-0.2,0.1-0.3,0.1-0.4,0.1s-0.3-0.1-0.3-0.2c-0.1-0.1-0.1-0.2-0.1-0.4c0,0,0-0.1,0-0.2
		l0.9-5.2l-3.8-3.7c-0.2-0.2-0.3-0.4-0.3-0.5c0-0.3,0.2-0.4,0.6-0.5l5.3-0.8l2.4-4.8c0.1-0.3,0.3-0.4,0.5-0.4s0.4,0.1,0.5,0.4
		l2.4,4.8l5.3,0.8C457.3,99,457.5,99.1,457.5,99.4z"/>
	<path class="st1" d="M479.6,99.4c0,0.2-0.1,0.3-0.3,0.5l-3.8,3.7l0.9,5.2c0,0,0,0.1,0,0.2s0,0.3-0.1,0.4s-0.2,0.2-0.3,0.2
		c-0.1,0-0.3,0-0.4-0.1l-4.7-2.5l-4.7,2.5c-0.2,0.1-0.3,0.1-0.4,0.1s-0.3-0.1-0.3-0.2c-0.1-0.1-0.1-0.2-0.1-0.4c0,0,0-0.1,0-0.2
		l0.9-5.2l-3.8-3.7c-0.2-0.2-0.3-0.4-0.3-0.5c0-0.3,0.2-0.4,0.6-0.5l5.3-0.8l2.4-4.8c0.1-0.3,0.3-0.4,0.5-0.4s0.4,0.1,0.5,0.4
		l2.4,4.8l5.3,0.8C479.4,99,479.6,99.1,479.6,99.4z"/>
</g>
</svg>
